<svg width="662" height="397" viewBox="0 0 662 397" fill="none" xmlns="http://www.w3.org/2000/svg">
<g clip-path="url(#clip0_4_2)">
<rect width="662" height="397" fill="white"/>
<path d="M662 0H0V397H662V0Z" stroke="#D3D3D3" stroke-width="0.5"/>
<path d="M352.5 388.25V29.75" stroke="black"/>
<path d="M357.65 37.47L352.5 26.75L347.35 37.47H357.65Z" fill="black"/>
<path d="M214 207.5C214 131.01 276.01 69 352.5 69C428.99 69 491 131.01 491 207.5C491 283.99 428.99 346 352.5 346C276.01 346 214 283.99 214 207.5Z" stroke="black" stroke-width="2"/>
<path d="M214 207.5C214 183.34 276.01 163.75 352.5 163.75C428.99 163.75 491 183.34 491 207.5C491 231.66 428.99 251.25 352.5 251.25C276.01 251.25 214 231.66 214 207.5Z" stroke="black" stroke-dasharray="6 6"/>
<path d="M352.5 69C376.66 69 396.25 131.01 396.25 207.5C396.25 283.99 376.66 346 352.5 346C328.34 346 308.75 283.99 308.75 207.5C308.75 131.01 328.34 69 352.5 69Z" stroke="black" stroke-dasharray="6 6"/>
<path d="M171.75 207.5H530.25" stroke="black"/>
<path d="M522.53 212.65L533.25 207.5L522.53 202.35V212.65Z" fill="black"/>
<path d="M282.96 277.04L419.92 140.08" stroke="black"/>
<path d="M418.762 147.305L422.043 137.957L412.695 141.238L418.762 147.305Z" fill="black"/>
<path d="M209 207.5C209 204.74 211.24 202.5 214 202.5C216.76 202.5 219 204.74 219 207.5C219 210.26 216.76 212.5 214 212.5C211.24 212.5 209 210.26 209 207.5Z" fill="white" stroke="black"/>
<path d="M486 207.5C486 204.74 488.24 202.5 491 202.5C493.76 202.5 496 204.74 496 207.5C496 210.26 493.76 212.5 491 212.5C488.24 212.5 486 210.26 486 207.5Z" fill="white" stroke="black"/>
<path d="M347.5 346C347.5 343.24 349.74 341 352.5 341C355.26 341 357.5 343.24 357.5 346C357.5 348.76 355.26 351 352.5 351C349.74 351 347.5 348.76 347.5 346Z" fill="white" stroke="black"/>
<path d="M347.5 69C347.5 66.24 349.74 64 352.5 64C355.26 64 357.5 66.24 357.5 69C357.5 71.76 355.26 74 352.5 74C349.74 74 347.5 71.76 347.5 69Z" fill="white" stroke="black"/>
<path d="M389.5 166.2C389.5 163.44 391.74 161.2 394.5 161.2C397.26 161.2 399.5 163.44 399.5 166.2C399.5 168.96 397.26 171.2 394.5 171.2C391.74 171.2 389.5 168.96 389.5 166.2Z" fill="white" stroke="black"/>
<path d="M305.5 249.8C305.5 247.04 307.74 244.8 310.5 244.8C313.26 244.8 315.5 247.04 315.5 249.8C315.5 252.56 313.26 254.8 310.5 254.8C307.74 254.8 305.5 252.56 305.5 249.8Z" fill="white" stroke="black"/>
<path d="M384.733 123.6H253.733V163.6H384.733V123.6Z" fill="white"/>
<path d="M448.167 252.467H318.167V292.467H448.167V252.467Z" fill="white"/>
<path d="M517.84 229.38C518.146 229.543 518.472 229.624 518.717 229.624C519.39 229.624 520.186 229.033 520.818 228.074L522.369 225.687L522.593 227.095C522.858 228.829 523.327 229.624 524.062 229.624C524.511 229.624 525.163 229.278 525.816 228.686L526.816 227.788L526.632 227.401C525.898 228.013 525.388 228.319 525.061 228.319C524.755 228.319 524.49 228.115 524.286 227.707C524.103 227.319 523.878 226.564 523.776 225.973L523.409 223.912L524.123 222.913C525.082 221.587 525.633 221.118 526.265 221.118C526.591 221.118 526.836 221.281 526.938 221.587L527.224 221.505L527.53 219.771C527.285 219.628 527.101 219.567 526.918 219.567C526.102 219.567 525.286 220.302 524.021 222.178L523.266 223.3L523.144 222.321C522.899 220.302 522.348 219.567 521.145 219.567C520.614 219.567 520.165 219.73 519.982 219.996L518.799 221.689L519.145 221.893C519.757 221.199 520.165 220.914 520.553 220.914C521.226 220.914 521.675 221.75 522.022 223.749L522.246 225.014L521.43 226.279C520.553 227.646 519.859 228.298 519.288 228.298C518.982 228.298 518.758 228.217 518.717 228.115L518.493 227.544L518.085 227.605C518.085 228.319 517.921 228.849 517.84 229.38Z" fill="black" stroke="black" stroke-width="0.1632"/>
<path d="M424.888 163.025C424.868 163.168 424.868 163.29 424.868 163.392C424.868 164.27 425.623 164.984 426.541 164.984C428.703 164.984 430.947 162.454 432.151 158.68L435.027 149.704L434.803 149.52C434.211 149.745 433.742 149.867 433.293 149.908L432.579 152.601C432.334 153.56 431.62 155.049 430.947 156.048C430.233 157.089 429.234 157.986 428.785 157.986C428.54 157.986 428.356 157.517 428.377 157.007L428.703 152.784C428.744 152.152 428.785 151.377 428.785 150.806C428.785 149.888 428.642 149.52 428.295 149.52C428.03 149.52 427.744 149.663 426.765 150.336L425.092 151.479L425.317 151.846L426.337 151.234C426.439 151.173 426.663 150.989 426.847 150.989C427.132 150.989 427.296 151.377 427.296 152.05C427.296 152.07 427.296 152.193 427.275 152.356L426.928 157.313L426.908 158.129C426.908 158.986 427.275 159.578 427.785 159.578C428.54 159.578 430.254 157.844 431.784 155.538L430.784 159.027C429.744 162.638 428.724 164.127 427.296 164.127C426.582 164.127 426.031 163.576 426.031 162.862C426.031 162.76 426.051 162.597 426.072 162.413L425.868 162.332L424.888 163.025Z" fill="black" stroke="black" stroke-width="0.1632"/>
<path d="M370.397 45.4525C370.642 45.4525 370.825 45.4117 371.417 45.2485C371.641 43.9837 371.805 43.2901 372.029 42.3313H371.58L371.131 43.5553C371.009 43.9225 370.764 44.0653 370.336 44.0653C370.091 44.0653 369.765 44.0245 369.336 43.9225L368.969 43.8409C368.296 43.6981 367.602 43.5961 367.215 43.5961C366.562 43.5961 366.011 43.7185 365.277 44.0245L372.192 36.2317L372.315 35.5789L372.131 35.3953L371.662 35.8645C371.458 36.0685 371.254 36.1501 370.968 36.1501C370.275 36.1501 369.214 35.9869 368.235 35.7217L367.867 35.6197C367.296 35.4769 366.888 35.3953 366.603 35.3953C366.256 35.3953 365.848 35.4565 365.358 35.5993L364.705 38.0881H365.134L365.746 36.9049C366.093 36.8233 366.276 36.8029 366.541 36.8029C367.378 36.8029 368.031 37.1089 369.112 37.1089C369.846 37.1089 370.336 36.9865 371.009 36.6397L363.808 44.7997L363.991 45.3505C364.583 44.8813 365.134 44.6977 365.848 44.6977C367.133 44.6977 368.989 45.4525 370.397 45.4525Z" fill="black" stroke="black" stroke-width="0.1632"/>
<path d="M100.089 177.29V176.623H94.0913V177.29H100.089Z" fill="black" stroke="black" stroke-width="0.0952"/>
<path d="M91.3081 170.789H90.3081V182.429H91.3081V170.789Z" fill="black"/>
<path d="M101.997 170.789L105.897 176.609L101.997 182.429" stroke="black"/>
<path d="M117.969 176.052V175.35H111.555V176.052H117.969ZM117.969 178.587V177.885H111.555V178.587H117.969Z" fill="black" stroke="black" stroke-width="0.0952"/>
<path d="M134.396 171.936V171.579L133.777 171.543C133.123 171.507 133.004 171.376 133.004 170.758V163.57L130.136 164.784L130.219 165.379L132.004 164.593V170.758C132.004 171.376 131.873 171.507 131.231 171.543L130.564 171.579V171.936C132.397 171.9 132.397 171.9 132.528 171.9C132.897 171.9 134.206 171.936 134.396 171.936Z" fill="black" stroke="black" stroke-width="0.0952"/>
<path d="M135.565 193.173V193.483C137.791 193.483 137.791 193.447 138.219 193.447C138.647 193.447 138.647 193.483 140.944 193.483V192.471C139.576 192.531 139.028 192.483 136.827 192.531L138.993 190.234C140.147 189.008 140.504 188.354 140.504 187.461C140.504 186.093 139.576 185.248 138.064 185.248C137.208 185.248 136.624 185.486 136.041 186.081L135.839 187.699H136.184L136.339 187.152C136.529 186.462 136.958 186.164 137.755 186.164C138.778 186.164 139.433 186.807 139.433 187.818C139.433 188.711 138.933 189.591 137.588 191.019L135.565 193.173Z" fill="black" stroke="black" stroke-width="0.0952"/>
<g clip-path="url(#clip1_4_2)">
<path d="M123.734 187.462L126.834 185.802L130.264 193.062L134.934 180.672H141.324V181.412H135.474L129.914 196.072L125.654 187.152L123.934 187.802L123.734 187.462Z" fill="black"/>
</g>
<path d="M123.484 177.312H141.328" stroke="black"/>
<path d="M149.802 171.982C147.957 171.982 147.017 173.446 147.017 176.326C147.017 177.718 147.267 178.92 147.683 179.503C148.1 180.086 148.766 180.419 149.504 180.419C151.301 180.419 152.205 178.872 152.205 175.826C152.205 173.22 151.432 171.982 149.802 171.982ZM149.587 172.399C150.742 172.399 151.206 173.565 151.206 176.421C151.206 178.956 150.754 180.003 149.659 180.003C148.504 180.003 148.017 178.801 148.017 175.897C148.017 173.386 148.457 172.399 149.587 172.399Z" fill="black" stroke="black" stroke-width="0.0952"/>
<path d="M144.496 170.789H143.496V182.429H144.496V170.789Z" fill="black"/>
<path d="M153.935 170.789L157.835 176.609L153.935 182.429" stroke="black"/>
<path d="M168.136 177.29V176.623H162.138V177.29H168.136Z" fill="black" stroke="black" stroke-width="0.0952"/>
<path d="M183.209 171.936V171.579L182.59 171.543C181.935 171.507 181.816 171.376 181.816 170.758V163.57L178.948 164.784L179.032 165.379L180.817 164.593V170.758C180.817 171.376 180.686 171.507 180.043 171.543L179.377 171.579V171.936C181.209 171.9 181.209 171.9 181.34 171.9C181.709 171.9 183.018 171.936 183.209 171.936Z" fill="black" stroke="black" stroke-width="0.0952"/>
<path d="M184.378 193.173V193.483C186.603 193.483 186.603 193.447 187.032 193.447C187.46 193.447 187.46 193.483 189.757 193.483V192.471C188.388 192.531 187.841 192.483 185.639 192.531L187.805 190.234C188.959 189.008 189.316 188.354 189.316 187.461C189.316 186.093 188.388 185.248 186.877 185.248C186.02 185.248 185.437 185.486 184.854 186.081L184.652 187.699H184.997L185.151 187.152C185.342 186.462 185.77 186.164 186.567 186.164C187.591 186.164 188.245 186.807 188.245 187.818C188.245 188.711 187.746 189.591 186.401 191.019L184.378 193.173Z" fill="black" stroke="black" stroke-width="0.0952"/>
<g clip-path="url(#clip2_4_2)">
<path d="M172.547 187.462L175.647 185.802L179.077 193.062L183.747 180.672H190.137V181.412H184.287L178.727 196.072L174.467 187.152L172.747 187.802L172.547 187.462Z" fill="black"/>
</g>
<path d="M172.297 177.312H190.141" stroke="black"/>
<path d="M200.459 180.217V179.86L199.84 179.824C199.185 179.789 199.066 179.658 199.066 179.039V171.851L196.198 173.065L196.282 173.66L198.067 172.875V179.039C198.067 179.658 197.936 179.789 197.293 179.824L196.627 179.86V180.217C198.459 180.181 198.459 180.181 198.59 180.181C198.959 180.181 200.268 180.217 200.459 180.217Z" fill="black" stroke="black" stroke-width="0.0952"/>
<path d="M193.308 170.789H192.308V182.429H193.308V170.789Z" fill="black"/>
<g clip-path="url(#clip3_4_2)">
<path d="M202.747 170.789L206.647 176.609L202.747 182.429" stroke="black"/>
</g>
<path d="M510 175.641V174.939H507.144V172.107H506.442V174.939H503.586V175.641H506.442V178.509H507.144V175.641H510Z" fill="black" stroke="black" stroke-width="0.0952"/>
<path d="M500.636 169.117H499.636V180.757H500.636V169.117Z" fill="black"/>
<path d="M512.076 169.117L515.976 174.937L512.076 180.757" stroke="black"/>
<path d="M528.047 174.38V173.678H521.633V174.38H528.047ZM528.047 176.915V176.213H521.633V176.915H528.047Z" fill="black" stroke="black" stroke-width="0.0952"/>
<path d="M544.474 170.264V169.907L543.855 169.871C543.201 169.835 543.082 169.705 543.082 169.086V161.898L540.214 163.112L540.297 163.707L542.082 162.922V169.086C542.082 169.705 541.951 169.835 541.309 169.871L540.642 169.907V170.264C542.475 170.228 542.475 170.228 542.606 170.228C542.975 170.228 544.284 170.264 544.474 170.264Z" fill="black" stroke="black" stroke-width="0.0952"/>
<path d="M545.644 191.501V191.811C547.869 191.811 547.869 191.775 548.297 191.775C548.726 191.775 548.726 191.811 551.022 191.811V190.799C549.654 190.859 549.106 190.811 546.905 190.859L549.071 188.562C550.225 187.336 550.582 186.682 550.582 185.789C550.582 184.421 549.654 183.576 548.143 183.576C547.286 183.576 546.703 183.814 546.12 184.409L545.917 186.027H546.262L546.417 185.48C546.607 184.79 547.036 184.492 547.833 184.492C548.857 184.492 549.511 185.135 549.511 186.146C549.511 187.039 549.011 187.919 547.667 189.347L545.644 191.501Z" fill="black" stroke="black" stroke-width="0.0952"/>
<g clip-path="url(#clip4_4_2)">
<path d="M533.812 185.79L536.912 184.13L540.343 191.39L545.012 179H551.403V179.74H545.552L539.992 194.4L535.733 185.48L534.012 186.13L533.812 185.79Z" fill="black"/>
</g>
<path d="M533.562 175.641H551.406" stroke="black"/>
<path d="M559.88 170.31C558.035 170.31 557.095 171.774 557.095 174.654C557.095 176.046 557.345 177.248 557.761 177.831C558.178 178.414 558.844 178.747 559.582 178.747C561.379 178.747 562.283 177.2 562.283 174.154C562.283 171.548 561.51 170.31 559.88 170.31ZM559.665 170.727C560.82 170.727 561.284 171.893 561.284 174.749C561.284 177.284 560.832 178.331 559.737 178.331C558.583 178.331 558.095 177.129 558.095 174.225C558.095 171.714 558.535 170.727 559.665 170.727Z" fill="black" stroke="black" stroke-width="0.0952"/>
<path d="M554.574 169.117H553.574V180.757H554.574V169.117Z" fill="black"/>
<path d="M564.013 169.117L567.913 174.937L564.013 180.757" stroke="black"/>
<path d="M578.797 175.641V174.939H575.941V172.107H575.239V174.939H572.383V175.641H575.239V178.509H575.941V175.641H578.797Z" fill="black" stroke="black" stroke-width="0.0952"/>
<path d="M594.037 170.264V169.907L593.418 169.871C592.763 169.835 592.644 169.705 592.644 169.086V161.898L589.776 163.112L589.86 163.707L591.645 162.922V169.086C591.645 169.705 591.514 169.835 590.871 169.871L590.205 169.907V170.264C592.037 170.228 592.037 170.228 592.168 170.228C592.537 170.228 593.846 170.264 594.037 170.264Z" fill="black" stroke="black" stroke-width="0.0952"/>
<path d="M595.206 191.501V191.811C597.431 191.811 597.431 191.775 597.86 191.775C598.288 191.775 598.288 191.811 600.585 191.811V190.799C599.216 190.859 598.669 190.811 596.467 190.859L598.633 188.562C599.788 187.336 600.145 186.682 600.145 185.789C600.145 184.421 599.216 183.576 597.705 183.576C596.848 183.576 596.265 183.814 595.682 184.409L595.48 186.027H595.825L595.98 185.48C596.17 184.79 596.598 184.492 597.396 184.492C598.419 184.492 599.074 185.135 599.074 186.146C599.074 187.039 598.574 187.919 597.229 189.347L595.206 191.501Z" fill="black" stroke="black" stroke-width="0.0952"/>
<g clip-path="url(#clip5_4_2)">
<path d="M583.375 185.79L586.475 184.13L589.905 191.39L594.575 179H600.965V179.74H595.115L589.555 194.4L585.295 185.48L583.575 186.13L583.375 185.79Z" fill="black"/>
</g>
<path d="M583.125 175.641H600.969" stroke="black"/>
<path d="M611.287 178.545V178.188L610.668 178.152C610.013 178.117 609.894 177.986 609.894 177.367V170.179L607.026 171.393L607.11 171.988L608.895 171.203V177.367C608.895 177.986 608.764 178.117 608.121 178.152L607.455 178.188V178.545C609.287 178.509 609.287 178.509 609.418 178.509C609.787 178.509 611.096 178.545 611.287 178.545Z" fill="black" stroke="black" stroke-width="0.0952"/>
<path d="M604.136 169.117H603.136V180.757H604.136V169.117Z" fill="black"/>
<g clip-path="url(#clip6_4_2)">
<path d="M613.576 169.117L617.476 174.937L613.576 180.757" stroke="black"/>
</g>
<path d="M334.942 53.7009C333.098 53.7009 332.158 55.1646 332.158 58.0444C332.158 59.4367 332.407 60.6386 332.824 61.2217C333.24 61.8048 333.907 62.138 334.645 62.138C336.442 62.138 337.346 60.591 337.346 57.5446C337.346 54.9385 336.572 53.7009 334.942 53.7009ZM334.728 54.1174C335.882 54.1174 336.346 55.2836 336.346 58.1396C336.346 60.6743 335.894 61.7215 334.799 61.7215C333.645 61.7215 333.157 60.5196 333.157 57.616C333.157 55.1051 333.597 54.1174 334.728 54.1174Z" fill="black" stroke="black" stroke-width="0.0952"/>
<path d="M329.636 52.5075H328.636V64.1475H329.636V52.5075Z" fill="black"/>
<path d="M339.076 52.5075L342.976 58.3275L339.076 64.1475" stroke="black"/>
<path d="M341.459 360.592V360.235L340.84 360.199C340.185 360.164 340.066 360.033 340.066 359.414V352.226L337.198 353.44L337.282 354.035L339.067 353.25V359.414C339.067 360.033 338.936 360.164 338.293 360.199L337.627 360.235V360.592C339.459 360.556 339.459 360.556 339.59 360.556C339.959 360.556 341.268 360.592 341.459 360.592Z" fill="black" stroke="black" stroke-width="0.0952"/>
<path d="M334.308 351.164H333.308V362.804H334.308V351.164Z" fill="black"/>
<g clip-path="url(#clip7_4_2)">
<path d="M343.747 351.164L347.647 356.984L343.747 362.804" stroke="black"/>
</g>
<path d="M269.063 142.907V142.205H266.207V139.373H265.504V142.205H262.648V142.907H265.504V145.775H266.207V142.907H269.063Z" fill="black" stroke="black" stroke-width="0.0952"/>
<path d="M270.233 141.158L270.316 141.396L270.697 141.146C271.137 140.872 271.173 140.848 271.256 140.848C271.375 140.848 271.47 140.967 271.47 141.122C271.47 141.205 271.423 141.479 271.375 141.646L270.59 144.502C270.495 144.871 270.435 145.192 270.435 145.418C270.435 145.704 270.566 145.882 270.792 145.882C271.101 145.882 271.53 145.632 272.696 144.763L272.577 144.549L272.268 144.752C271.923 144.978 271.649 145.109 271.542 145.109C271.458 145.109 271.387 144.99 271.387 144.871C271.387 144.752 271.411 144.644 271.47 144.395L272.387 140.777C272.434 140.575 272.458 140.444 272.458 140.349C272.458 140.146 272.351 140.039 272.161 140.039C271.899 140.039 271.458 140.289 270.566 140.92L270.233 141.158ZM272.541 137.302C272.196 137.302 271.851 137.695 271.851 138.099C271.851 138.397 272.03 138.587 272.315 138.587C272.684 138.587 272.97 138.242 272.97 137.79C272.97 137.504 272.791 137.302 272.541 137.302Z" fill="black" stroke="black" stroke-width="0.0952"/>
<path d="M259.699 136.382H258.699V148.023H259.699V136.382Z" fill="black"/>
<path d="M274.435 136.382L278.335 142.202L274.435 148.023" stroke="black"/>
<path d="M290.406 141.646V140.944H283.992V141.646H290.406ZM290.406 144.18V143.478H283.992V144.18H290.406Z" fill="black" stroke="black" stroke-width="0.0952"/>
<path d="M306.834 137.529V137.172L306.215 137.137C305.56 137.101 305.441 136.97 305.441 136.351V129.164L302.573 130.378L302.657 130.973L304.442 130.187V136.351C304.442 136.97 304.311 137.101 303.668 137.137L303.002 137.172V137.529C304.834 137.494 304.834 137.494 304.965 137.494C305.334 137.494 306.643 137.529 306.834 137.529Z" fill="black" stroke="black" stroke-width="0.0952"/>
<path d="M308.003 158.767V159.076C310.228 159.076 310.228 159.041 310.657 159.041C311.085 159.041 311.085 159.076 313.382 159.076V158.065C312.013 158.124 311.466 158.077 309.264 158.124L311.43 155.828C312.584 154.602 312.941 153.947 312.941 153.055C312.941 151.686 312.013 150.842 310.502 150.842C309.645 150.842 309.062 151.08 308.479 151.675L308.277 153.293H308.622L308.776 152.746C308.967 152.055 309.395 151.758 310.192 151.758C311.216 151.758 311.87 152.4 311.87 153.412C311.87 154.304 311.371 155.185 310.026 156.613L308.003 158.767Z" fill="black" stroke="black" stroke-width="0.0952"/>
<g clip-path="url(#clip8_4_2)">
<path d="M296.172 153.056L299.272 151.396L302.702 158.656L307.372 146.266H313.762V147.006H307.912L302.352 161.666L298.092 152.746L296.372 153.396L296.172 153.056Z" fill="black"/>
</g>
<path d="M295.922 142.906H313.766" stroke="black"/>
<path d="M322.239 137.576C320.395 137.576 319.454 139.04 319.454 141.919C319.454 143.312 319.704 144.514 320.121 145.097C320.537 145.68 321.204 146.013 321.942 146.013C323.738 146.013 324.643 144.466 324.643 141.42C324.643 138.813 323.869 137.576 322.239 137.576ZM322.025 137.992C323.179 137.992 323.643 139.159 323.643 142.015C323.643 144.549 323.191 145.596 322.096 145.596C320.942 145.596 320.454 144.395 320.454 141.491C320.454 138.98 320.894 137.992 322.025 137.992Z" fill="black" stroke="black" stroke-width="0.0952"/>
<path d="M316.933 136.382H315.933V148.023H316.933V136.382Z" fill="black"/>
<g clip-path="url(#clip9_4_2)">
<path d="M326.372 136.382L330.272 142.202L326.372 148.023" stroke="black"/>
</g>
<path d="M341.156 142.907V142.205H338.3V139.373H337.598V142.205H334.742V142.907H337.598V145.775H338.3V142.907H341.156Z" fill="black" stroke="black" stroke-width="0.0952"/>
<path d="M353.155 132.877L353.238 133.115L353.619 132.865C354.059 132.591 354.095 132.567 354.178 132.567C354.297 132.567 354.392 132.686 354.392 132.841C354.392 132.924 354.345 133.198 354.297 133.364L353.512 136.22C353.416 136.589 353.357 136.911 353.357 137.137C353.357 137.422 353.488 137.601 353.714 137.601C354.023 137.601 354.452 137.351 355.618 136.482L355.499 136.268L355.19 136.47C354.844 136.696 354.571 136.827 354.464 136.827C354.38 136.827 354.309 136.708 354.309 136.589C354.309 136.47 354.333 136.363 354.392 136.113L355.309 132.496C355.356 132.293 355.38 132.163 355.38 132.067C355.38 131.865 355.273 131.758 355.082 131.758C354.821 131.758 354.38 132.008 353.488 132.639L353.155 132.877ZM355.463 129.021C355.118 129.021 354.773 129.414 354.773 129.818C354.773 130.116 354.952 130.306 355.237 130.306C355.606 130.306 355.892 129.961 355.892 129.509C355.892 129.223 355.713 129.021 355.463 129.021Z" fill="black" stroke="black" stroke-width="0.0952"/>
<path d="M357.565 158.767V159.076C359.791 159.076 359.791 159.041 360.219 159.041C360.647 159.041 360.647 159.076 362.944 159.076V158.065C361.576 158.124 361.028 158.077 358.827 158.124L360.993 155.828C362.147 154.602 362.504 153.947 362.504 153.055C362.504 151.686 361.576 150.842 360.064 150.842C359.208 150.842 358.624 151.08 358.041 151.675L357.839 153.293H358.184L358.339 152.746C358.529 152.055 358.958 151.758 359.755 151.758C360.778 151.758 361.433 152.4 361.433 153.412C361.433 154.304 360.933 155.185 359.588 156.613L357.565 158.767Z" fill="black" stroke="black" stroke-width="0.0952"/>
<g clip-path="url(#clip10_4_2)">
<path d="M345.734 153.056L348.834 151.396L352.264 158.656L356.934 146.266H363.324V147.006H357.474L351.914 161.666L347.654 152.746L345.934 153.396L345.734 153.056Z" fill="black"/>
</g>
<path d="M345.484 142.906H363.328" stroke="black"/>
<path d="M373.646 145.811V145.454L373.027 145.418C372.373 145.382 372.254 145.251 372.254 144.633V137.445L369.386 138.659L369.469 139.254L371.254 138.468V144.633C371.254 145.251 371.123 145.382 370.481 145.418L369.814 145.454V145.811C371.647 145.775 371.647 145.775 371.778 145.775C372.147 145.775 373.456 145.811 373.646 145.811Z" fill="black" stroke="black" stroke-width="0.0952"/>
<path d="M366.496 136.382H365.496V148.023H366.496V136.382Z" fill="black"/>
<path d="M375.935 136.382L379.835 142.202L375.935 148.023" stroke="black"/>
<path d="M332.917 271.743V271.076H326.919V271.743H332.917Z" fill="black" stroke="black" stroke-width="0.0952"/>
<path d="M333.92 270.017L334.004 270.255L334.384 270.005C334.825 269.732 334.86 269.708 334.944 269.708C335.063 269.708 335.158 269.827 335.158 269.981C335.158 270.065 335.11 270.338 335.063 270.505L334.277 273.361C334.182 273.73 334.123 274.051 334.123 274.277C334.123 274.563 334.253 274.741 334.48 274.741C334.789 274.741 335.217 274.492 336.384 273.623L336.265 273.409L335.955 273.611C335.61 273.837 335.336 273.968 335.229 273.968C335.146 273.968 335.075 273.849 335.075 273.73C335.075 273.611 335.098 273.504 335.158 273.254L336.074 269.636C336.122 269.434 336.146 269.303 336.146 269.208C336.146 269.006 336.038 268.899 335.848 268.899C335.586 268.899 335.146 269.148 334.253 269.779L333.92 270.017ZM336.229 266.162C335.884 266.162 335.539 266.554 335.539 266.959C335.539 267.256 335.717 267.447 336.003 267.447C336.372 267.447 336.657 267.102 336.657 266.649C336.657 266.364 336.479 266.162 336.229 266.162Z" fill="black" stroke="black" stroke-width="0.0952"/>
<path d="M324.136 265.242H323.136V276.882H324.136V265.242Z" fill="black"/>
<path d="M338.122 265.242L342.022 271.062L338.122 276.882" stroke="black"/>
<path d="M354.094 270.505V269.803H347.68V270.505H354.094ZM354.094 273.04V272.338H347.68V273.04H354.094Z" fill="black" stroke="black" stroke-width="0.0952"/>
<path d="M370.521 266.389V266.032L369.902 265.996C369.248 265.96 369.129 265.83 369.129 265.211V258.023L366.261 259.237L366.344 259.832L368.129 259.047V265.211C368.129 265.83 367.998 265.96 367.356 265.996L366.689 266.032V266.389C368.522 266.353 368.522 266.353 368.653 266.353C369.022 266.353 370.331 266.389 370.521 266.389Z" fill="black" stroke="black" stroke-width="0.0952"/>
<path d="M371.69 287.626V287.936C373.916 287.936 373.916 287.9 374.344 287.9C374.772 287.9 374.772 287.936 377.069 287.936V286.924C375.701 286.984 375.153 286.936 372.952 286.984L375.118 284.687C376.272 283.461 376.629 282.807 376.629 281.914C376.629 280.546 375.701 279.701 374.189 279.701C373.333 279.701 372.749 279.939 372.166 280.534L371.964 282.152H372.309L372.464 281.605C372.654 280.915 373.083 280.617 373.88 280.617C374.903 280.617 375.558 281.26 375.558 282.271C375.558 283.164 375.058 284.044 373.713 285.472L371.69 287.626Z" fill="black" stroke="black" stroke-width="0.0952"/>
<g clip-path="url(#clip11_4_2)">
<path d="M359.859 281.915L362.959 280.255L366.389 287.515L371.059 275.125H377.449V275.865H371.599L366.039 290.525L361.779 281.605L360.059 282.255L359.859 281.915Z" fill="black"/>
</g>
<path d="M359.609 271.766H377.453" stroke="black"/>
<path d="M385.927 266.435C384.082 266.435 383.142 267.899 383.142 270.779C383.142 272.171 383.392 273.373 383.808 273.956C384.225 274.539 384.891 274.872 385.629 274.872C387.426 274.872 388.33 273.325 388.33 270.279C388.33 267.673 387.557 266.435 385.927 266.435ZM385.712 266.852C386.867 266.852 387.331 268.018 387.331 270.874C387.331 273.409 386.879 274.456 385.784 274.456C384.629 274.456 384.142 273.254 384.142 270.35C384.142 267.839 384.582 266.852 385.712 266.852Z" fill="black" stroke="black" stroke-width="0.0952"/>
<path d="M380.621 265.242H379.621V276.882H380.621V265.242Z" fill="black"/>
<path d="M390.06 265.242L393.96 271.062L390.06 276.882" stroke="black"/>
<path d="M404.261 271.743V271.076H398.263V271.743H404.261Z" fill="black" stroke="black" stroke-width="0.0952"/>
<path d="M416.092 261.736L416.175 261.974L416.556 261.724C416.997 261.45 417.032 261.427 417.116 261.427C417.235 261.427 417.33 261.546 417.33 261.7C417.33 261.784 417.282 262.057 417.235 262.224L416.449 265.08C416.354 265.449 416.294 265.77 416.294 265.996C416.294 266.282 416.425 266.46 416.651 266.46C416.961 266.46 417.389 266.21 418.555 265.342L418.436 265.127L418.127 265.33C417.782 265.556 417.508 265.687 417.401 265.687C417.318 265.687 417.246 265.568 417.246 265.449C417.246 265.33 417.27 265.223 417.33 264.973L418.246 261.355C418.294 261.153 418.317 261.022 418.317 260.927C418.317 260.724 418.21 260.617 418.02 260.617C417.758 260.617 417.318 260.867 416.425 261.498L416.092 261.736ZM418.401 257.88C418.056 257.88 417.711 258.273 417.711 258.678C417.711 258.975 417.889 259.166 418.175 259.166C418.544 259.166 418.829 258.82 418.829 258.368C418.829 258.083 418.651 257.88 418.401 257.88Z" fill="black" stroke="black" stroke-width="0.0952"/>
<path d="M420.503 287.626V287.936C422.728 287.936 422.728 287.9 423.157 287.9C423.585 287.9 423.585 287.936 425.882 287.936V286.924C424.513 286.984 423.966 286.936 421.764 286.984L423.93 284.687C425.084 283.461 425.441 282.807 425.441 281.914C425.441 280.546 424.513 279.701 423.002 279.701C422.145 279.701 421.562 279.939 420.979 280.534L420.777 282.152H421.122L421.276 281.605C421.467 280.915 421.895 280.617 422.693 280.617C423.716 280.617 424.37 281.26 424.37 282.271C424.37 283.164 423.871 284.044 422.526 285.472L420.503 287.626Z" fill="black" stroke="black" stroke-width="0.0952"/>
<g clip-path="url(#clip12_4_2)">
<path d="M408.672 281.915L411.772 280.255L415.202 287.515L419.872 275.125H426.262V275.865H420.412L414.852 290.525L410.592 281.605L408.872 282.255L408.672 281.915Z" fill="black"/>
</g>
<path d="M408.422 271.766H426.266" stroke="black"/>
<path d="M436.584 274.67V274.313L435.965 274.277C435.31 274.242 435.191 274.111 435.191 273.492V266.304L432.323 267.518L432.407 268.113L434.192 267.328V273.492C434.192 274.111 434.061 274.242 433.418 274.277L432.752 274.313V274.67C434.584 274.634 434.584 274.634 434.715 274.634C435.084 274.634 436.393 274.67 436.584 274.67Z" fill="black" stroke="black" stroke-width="0.0952"/>
<path d="M429.433 265.242H428.433V276.882H429.433V265.242Z" fill="black"/>
<path d="M438.872 265.242L442.772 271.062L438.872 276.882" stroke="black"/>
</g>
<defs>
<clipPath id="clip0_4_2">
<rect width="662" height="397" fill="white"/>
</clipPath>
<clipPath id="clip1_4_2">
<rect width="17.8438" height="11.8906" fill="white" transform="translate(123.484 180.672)"/>
</clipPath>
<clipPath id="clip2_4_2">
<rect width="17.8438" height="11.8906" fill="white" transform="translate(172.297 180.672)"/>
</clipPath>
<clipPath id="clip3_4_2">
<rect width="6.53125" height="14.2812" fill="white" transform="translate(201.438 169.469)"/>
</clipPath>
<clipPath id="clip4_4_2">
<rect width="17.8438" height="11.8906" fill="white" transform="translate(533.562 179)"/>
</clipPath>
<clipPath id="clip5_4_2">
<rect width="17.8438" height="11.8906" fill="white" transform="translate(583.125 179)"/>
</clipPath>
<clipPath id="clip6_4_2">
<rect width="6.53125" height="14.2812" fill="white" transform="translate(612.266 167.797)"/>
</clipPath>
<clipPath id="clip7_4_2">
<rect width="6.53125" height="14.2812" fill="white" transform="translate(342.438 349.844)"/>
</clipPath>
<clipPath id="clip8_4_2">
<rect width="17.8438" height="11.8906" fill="white" transform="translate(295.922 146.266)"/>
</clipPath>
<clipPath id="clip9_4_2">
<rect width="6.53125" height="14.2812" fill="white" transform="translate(325.062 135.062)"/>
</clipPath>
<clipPath id="clip10_4_2">
<rect width="17.8438" height="11.8906" fill="white" transform="translate(345.484 146.266)"/>
</clipPath>
<clipPath id="clip11_4_2">
<rect width="17.8438" height="11.8906" fill="white" transform="translate(359.609 275.125)"/>
</clipPath>
<clipPath id="clip12_4_2">
<rect width="17.8438" height="11.8906" fill="white" transform="translate(408.422 275.125)"/>
</clipPath>
</defs>
</svg>
