<svg xmlns="http://www.w3.org/2000/svg" xmlns:xlink="http://www.w3.org/1999/xlink" x="0" y="0" width="662" height="397" style="
        width:662px;
        height:397px;
        background: transparent;
        fill: none;
">
        
        
        <svg xmlns="http://www.w3.org/2000/svg" class="role-diagram-draw-area"><g class="shapes-region" style="stroke: black; fill: none;"><g class="composite-shape"><path class="real" d=" M352.5,69 C394.66,69 428.83,131.01 428.83,207.5 C428.83,283.99 394.66,346 352.5,346 C310.34,346 276.17,283.99 276.17,207.5 C276.17,131.01 310.34,69 352.5,69 Z" style="stroke-width: 1; stroke: rgb(0, 0, 0); fill: none; fill-opacity: 1; stroke-dasharray: 6, 6;"/></g><g class="composite-shape"><path class="real" d=" M214,207.5 C214,131.01 276.01,69 352.5,69 C428.99,69 491,131.01 491,207.5 C491,283.99 428.99,346 352.5,346 C276.01,346 214,283.99 214,207.5 Z" style="stroke-width: 2; stroke: rgb(0, 0, 0); fill: none; fill-opacity: 1;"/></g><g class="composite-shape"><path class="real" d=" M347.5,346 C347.5,343.24 349.74,341 352.5,341 C355.26,341 357.5,343.24 357.5,346 C357.5,348.76 355.26,351 352.5,351 C349.74,351 347.5,348.76 347.5,346 Z" style="stroke-width: 1; stroke: rgb(0, 0, 0); fill: rgb(255, 255, 255); fill-opacity: 1;"/></g><g class="composite-shape"><path class="real" d=" M347.5,69 C347.5,66.24 349.74,64 352.5,64 C355.26,64 357.5,66.24 357.5,69 C357.5,71.76 355.26,74 352.5,74 C349.74,74 347.5,71.76 347.5,69 Z" style="stroke-width: 1; stroke: rgb(0, 0, 0); fill: rgb(255, 255, 255); fill-opacity: 1;"/></g><g class="arrow-line"><path class="connection real" stroke-dasharray="" d="  M352.5,207.5 L290.16,255.8" style="stroke: rgb(255, 0, 0); stroke-opacity: 1; stroke-width: 2; fill: none; fill-opacity: 1;"/><g stroke="none" fill="rgb(255,0,0)" fill-opacity="1" transform="matrix(0.790475821431136,-0.6124932454588955,0.6124932454588955,0.790475821431136,287,258.25)" style="stroke: none; fill: rgb(255, 0, 0); stroke-width: 2;"><path d=" M11.61,-5.58 L0,0 L11.61,5.58 Z"/></g></g><g class="arrow-line"><path class="connection real" stroke-dasharray="" d="  M352.5,207.5 L471.25,232.19" style="stroke: rgb(0, 255, 0); stroke-opacity: 1; stroke-width: 2; fill: none; fill-opacity: 1;"/><g stroke="none" fill="rgb(0,255,0)" fill-opacity="1" transform="matrix(-0.9790809997632074,-0.2034708723691878,0.2034708723691878,-0.9790809997632074,475.16666666666663,233.00000000000006)" style="stroke: none; fill: rgb(0, 255, 0); stroke-width: 2;"><path d=" M11.61,-5.58 L0,0 L11.61,5.58 Z"/></g></g><g class="arrow-line"><path class="connection real" stroke-dasharray="" d="  M352.5,207.5 L352.5,78" style="stroke: rgb(0, 0, 255); stroke-opacity: 1; stroke-width: 2; fill: none; fill-opacity: 1;"/><g stroke="none" fill="rgb(0,0,255)" fill-opacity="1" transform="matrix(3.061616997868383e-16,1,-1,3.061616997868383e-16,352.5,74)" style="stroke: none; fill: rgb(0, 0, 255); stroke-width: 2;"><path d=" M11.61,-5.58 L0,0 L11.61,5.58 Z"/></g></g><g class="composite-shape"><path class="real" d=" M214,207.5 C214,173.3 276.01,145.58 352.5,145.58 C428.99,145.58 491,173.3 491,207.5 C491,241.7 428.99,269.42 352.5,269.42 C276.01,269.42 214,241.7 214,207.5 Z" style="stroke-width: 1; stroke: rgb(0, 0, 0); fill: none; fill-opacity: 1; stroke-dasharray: 6, 6;"/></g><g class="composite-shape"><path class="real" d=" M475.17,233 C475.17,230.24 477.41,228 480.17,228 C482.93,228 485.17,230.24 485.17,233 C485.17,235.76 482.93,238 480.17,238 C477.41,238 475.17,235.76 475.17,233 Z" style="stroke-width: 1; stroke: rgb(0, 0, 0); fill: rgb(255, 255, 255); fill-opacity: 1;"/></g><g class="composite-shape"><path class="real" d=" M220.5,182.5 C220.5,179.74 222.74,177.5 225.5,177.5 C228.26,177.5 230.5,179.74 230.5,182.5 C230.5,185.26 228.26,187.5 225.5,187.5 C222.74,187.5 220.5,185.26 220.5,182.5 Z" style="stroke-width: 1; stroke: rgb(0, 0, 0); fill: rgb(255, 255, 255); fill-opacity: 1;"/></g><g class="composite-shape"><path class="real" d=" M278.33,261.67 C278.33,258.91 280.57,256.67 283.33,256.67 C286.09,256.67 288.33,258.91 288.33,261.67 C288.33,264.43 286.09,266.67 283.33,266.67 C280.57,266.67 278.33,264.43 278.33,261.67 Z" style="stroke-width: 1; stroke: rgb(0, 0, 0); fill: rgb(255, 255, 255); fill-opacity: 1;"/></g><g class="composite-shape"><path class="real" d=" M417.5,154.7 C417.5,151.94 419.74,149.7 422.5,149.7 C425.26,149.7 427.5,151.94 427.5,154.7 C427.5,157.46 425.26,159.7 422.5,159.7 C419.74,159.7 417.5,157.46 417.5,154.7 Z" style="stroke-width: 1; stroke: rgb(0, 0, 0); fill: rgb(255, 255, 255); fill-opacity: 1;"/></g><g/></g><g/><g><g><rect rx="0" ry="0" x="428.5" y="117" width="127" height="40" style="stroke: none; stroke-opacity: 1; stroke-width: 1; fill: rgb(255, 255, 255); fill-opacity: 1;"/></g><g><rect rx="0" ry="0" x="207.33333333333337" y="269.1666666666667" width="128" height="40" style="stroke: none; stroke-opacity: 1; stroke-width: 1; fill: rgb(255, 255, 255); fill-opacity: 1;"/></g></g><g/></svg>
        <svg xmlns="http://www.w3.org/2000/svg" xmlns:xlink="http://www.w3.org/1999/xlink" width="660" height="395" style="width:660px;height:395px;font-family:Asana-Math, Asana;background:transparent;"><g><g><g><g transform="matrix(1,0,0,1,455.5,218.4)"><path transform="matrix(0.020399999999999998,0,0,-0.020399999999999998,0,0)" d="M-7 -180C-8 -187 -8 -193 -8 -198C-8 -241 29 -276 74 -276C180 -276 290 -152 349 33L490 473L479 482C450 471 427 465 405 463L370 331C358 284 323 211 290 162C255 111 206 67 184 67C172 67 163 90 164 115L180 322C182 353 184 391 184 419C184 464 177 482 160 482C147 482 133 475 85 442L3 386L14 368L64 398C69 401 80 410 89 410C103 410 111 391 111 358C111 357 111 351 110 343L93 100L92 60C92 18 110 -11 135 -11C172 -11 256 74 331 187L282 16C231 -161 181 -234 111 -234C76 -234 49 -207 49 -172C49 -167 50 -159 51 -150L41 -146Z" stroke="rgb(0,0,0)" stroke-opacity="1" stroke-width="8" fill="rgb(0,0,0)" fill-opacity="1"></path></g></g></g></g><g><g><g><g transform="matrix(1,0,0,1,291.5,239.4)"><path transform="matrix(0.020399999999999998,0,0,-0.020399999999999998,0,0)" d="M9 1C24 -7 40 -11 52 -11C85 -11 124 18 155 65L231 182L242 113C255 28 278 -11 314 -11C336 -11 368 6 400 35L449 79L440 98C404 68 379 53 363 53C348 53 335 63 325 83C316 102 305 139 300 168L282 269L317 318C364 383 391 406 422 406C438 406 450 398 455 383L469 387L484 472C472 479 463 482 454 482C414 482 374 446 312 354L275 299L269 347C257 446 230 482 171 482C145 482 123 474 114 461L56 378L73 368C103 402 123 416 142 416C175 416 197 375 214 277L225 215L185 153C142 86 108 54 80 54C65 54 54 58 52 63L41 91L21 88C21 53 13 27 9 1Z" stroke="rgb(0,0,0)" stroke-opacity="1" stroke-width="8" fill="rgb(0,0,0)" fill-opacity="1"></path></g></g></g></g><g><g><g><g transform="matrix(1,0,0,1,361,93.4)"><path transform="matrix(0.020399999999999998,0,0,-0.020399999999999998,0,0)" d="M322 -11C334 -11 343 -9 372 -1C383 61 391 95 402 142L380 142L358 82C352 64 340 57 319 57C307 57 291 59 270 64L252 68C219 75 185 80 166 80C134 80 107 74 71 59L410 441L416 473L407 482L384 459C374 449 364 445 350 445C316 445 264 453 216 466L198 471C170 478 150 482 136 482C119 482 99 479 75 472L43 350L64 350L94 408C111 412 120 413 133 413C174 413 206 398 259 398C295 398 319 404 352 421L-1 21L8 -6C37 17 64 26 99 26C162 26 253 -11 322 -11Z" stroke="rgb(0,0,0)" stroke-opacity="1" stroke-width="8" fill="rgb(0,0,0)" fill-opacity="1"></path></g></g></g></g><g><g><g><g><g><g><g transform="matrix(1,0,0,1,99.15625,167.68125)"><path transform="matrix(0.0119,0,0,-0.0119,0,0)" d="M555 243L555 299L51 299L51 243Z" stroke="rgb(0,0,0)" stroke-opacity="1" stroke-width="8" fill="rgb(0,0,0)" fill-opacity="1"></path></g></g><g><g transform="matrix(1,0,0,1,106.359375,167.68125)"><path transform="matrix(0.0119,0,0,-0.0119,0,0)" d="M34 388L41 368L73 389C110 412 113 414 120 414C130 414 138 404 138 391C138 384 134 361 130 347L64 107C56 76 51 49 51 30C51 6 62 -9 81 -9C107 -9 143 12 241 85L231 103L205 86C176 67 153 56 144 56C137 56 131 66 131 76C131 86 133 95 138 116L215 420C219 437 221 448 221 456C221 473 212 482 196 482C174 482 137 461 62 408ZM228 712C199 712 170 679 170 645C170 620 185 604 209 604C240 604 264 633 264 671C264 695 249 712 228 712Z" stroke="rgb(0,0,0)" stroke-opacity="1" stroke-width="8" fill="rgb(0,0,0)" fill-opacity="1"></path></g></g></g></g><svg x="95" overflow="visible" y="156.96875" height="14.28125" width="2.96875"><rect style="fill:rgb(0,0,0);fill-opacity:1;stroke-width:1px;stroke:none;stroke-opacity:1;" x="0.98" y="1.32" width="1" height="11.64"></rect></svg><svg x="109.65625" overflow="visible" y="156.96875" height="14.28125" width="6.53125"><polyline points="1.31,1.32 5.21,7.14 1.31,12.96" style="fill:none;fill-opacity:1;stroke-width:1px;stroke:rgb(0,0,0);stroke-opacity:1;"></polyline></svg></g><g><g transform="matrix(1,0,0,1,119.75,167.68125)"><path transform="matrix(0.0119,0,0,-0.0119,0,0)" d="M604 347L604 406L65 406L65 347ZM604 134L604 193L65 193L65 134Z" stroke="rgb(0,0,0)" stroke-opacity="1" stroke-width="8" fill="rgb(0,0,0)" fill-opacity="1"></path></g></g><g><g><g><g><g transform="matrix(1,0,0,1,138.390625,159.4)"><path transform="matrix(0.0119,0,0,-0.0119,0,0)" d="M418 -3L418 27L366 30C311 33 301 44 301 96L301 700L60 598L67 548L217 614L217 96C217 44 206 33 152 30L96 27L96 -3C250 0 250 0 261 0C292 0 402 -3 418 -3Z" stroke="rgb(0,0,0)" stroke-opacity="1" stroke-width="8" fill="rgb(0,0,0)" fill-opacity="1"></path></g></g></g></g><g><g><g><g><g><g><g transform="matrix(1,0,0,1,144.34375,180.946875)"><path transform="matrix(0.0119,0,0,-0.0119,0,0)" d="M16 23L16 -3C203 -3 203 0 239 0C275 0 275 -3 468 -3L468 82C353 77 307 81 122 77L304 270C401 373 431 428 431 503C431 618 353 689 226 689C154 689 105 669 56 619L39 483L68 483L81 529C97 587 133 612 200 612C286 612 341 558 341 473C341 398 299 324 186 204Z" stroke="rgb(0,0,0)" stroke-opacity="1" stroke-width="8" fill="rgb(0,0,0)" fill-opacity="1"></path></g></g></g></g><svg x="132.453125" overflow="visible" y="168.171875" height="11.890625" width="17.84375"><polygon points="0.25,6.79 3.35,5.13 6.78,12.39 11.45,0.00 17.84,0.00 17.84,0.74 11.99,0.74 6.43,15.40 2.17,6.48 0.45,7.13" style="fill:rgb(0,0,0);fill-opacity:1;stroke-width:1px;stroke:none;stroke-opacity:1;"></polygon></svg></g></g></g><line style="fill:none;stroke-width:1px;stroke:rgb(0, 0, 0);" x1="132.453125" y1="164.8125" x2="150.296875" y2="164.8125"></line></g><g><g><g><g><g transform="matrix(1,0,0,1,155.640625,167.68125)"><path transform="matrix(0.0119,0,0,-0.0119,0,0)" d="M263 689C108 689 29 566 29 324C29 207 50 106 85 57C120 8 176 -20 238 -20C389 -20 465 110 465 366C465 585 400 689 263 689ZM245 654C342 654 381 556 381 316C381 103 343 15 251 15C154 15 113 116 113 360C113 571 150 654 245 654Z" stroke="rgb(0,0,0)" stroke-opacity="1" stroke-width="8" fill="rgb(0,0,0)" fill-opacity="1"></path></g></g></g></g><svg x="151.484375" overflow="visible" y="156.96875" height="14.28125" width="2.96875"><rect style="fill:rgb(0,0,0);fill-opacity:1;stroke-width:1px;stroke:none;stroke-opacity:1;" x="0.98" y="1.32" width="1" height="11.64"></rect></svg><svg x="161.59375" overflow="visible" y="156.96875" height="14.28125" width="6.53125"><polyline points="1.31,1.32 5.21,7.14 1.31,12.96" style="fill:none;fill-opacity:1;stroke-width:1px;stroke:rgb(0,0,0);stroke-opacity:1;"></polyline></svg></g><g><g transform="matrix(1,0,0,1,170.5,167.68125)"><path transform="matrix(0.0119,0,0,-0.0119,0,0)" d="M555 243L555 299L51 299L51 243Z" stroke="rgb(0,0,0)" stroke-opacity="1" stroke-width="8" fill="rgb(0,0,0)" fill-opacity="1"></path></g></g><g><g><g><g><g transform="matrix(1,0,0,1,188.53125,159.4)"><path transform="matrix(0.0119,0,0,-0.0119,0,0)" d="M34 388L41 368L73 389C110 412 113 414 120 414C130 414 138 404 138 391C138 384 134 361 130 347L64 107C56 76 51 49 51 30C51 6 62 -9 81 -9C107 -9 143 12 241 85L231 103L205 86C176 67 153 56 144 56C137 56 131 66 131 76C131 86 133 95 138 116L215 420C219 437 221 448 221 456C221 473 212 482 196 482C174 482 137 461 62 408ZM228 712C199 712 170 679 170 645C170 620 185 604 209 604C240 604 264 633 264 671C264 695 249 712 228 712Z" stroke="rgb(0,0,0)" stroke-opacity="1" stroke-width="8" fill="rgb(0,0,0)" fill-opacity="1"></path></g></g></g></g><g><g><g><g><g><g><g transform="matrix(1,0,0,1,193.15625,180.946875)"><path transform="matrix(0.0119,0,0,-0.0119,0,0)" d="M16 23L16 -3C203 -3 203 0 239 0C275 0 275 -3 468 -3L468 82C353 77 307 81 122 77L304 270C401 373 431 428 431 503C431 618 353 689 226 689C154 689 105 669 56 619L39 483L68 483L81 529C97 587 133 612 200 612C286 612 341 558 341 473C341 398 299 324 186 204Z" stroke="rgb(0,0,0)" stroke-opacity="1" stroke-width="8" fill="rgb(0,0,0)" fill-opacity="1"></path></g></g></g></g><svg x="181.265625" overflow="visible" y="168.171875" height="11.890625" width="17.84375"><polygon points="0.25,6.79 3.35,5.13 6.78,12.39 11.45,0.00 17.84,0.00 17.84,0.74 11.99,0.74 6.43,15.40 2.17,6.48 0.45,7.13" style="fill:rgb(0,0,0);fill-opacity:1;stroke-width:1px;stroke:none;stroke-opacity:1;"></polygon></svg></g></g></g><line style="fill:none;stroke-width:1px;stroke:rgb(0, 0, 0);" x1="181.265625" y1="164.8125" x2="199.109375" y2="164.8125"></line></g><g><g><g><g><g transform="matrix(1,0,0,1,204.453125,167.68125)"><path transform="matrix(0.0119,0,0,-0.0119,0,0)" d="M418 -3L418 27L366 30C311 33 301 44 301 96L301 700L60 598L67 548L217 614L217 96C217 44 206 33 152 30L96 27L96 -3C250 0 250 0 261 0C292 0 402 -3 418 -3Z" stroke="rgb(0,0,0)" stroke-opacity="1" stroke-width="8" fill="rgb(0,0,0)" fill-opacity="1"></path></g></g></g></g><svg x="200.296875" overflow="visible" y="156.96875" height="14.28125" width="2.96875"><rect style="fill:rgb(0,0,0);fill-opacity:1;stroke-width:1px;stroke:none;stroke-opacity:1;" x="0.98" y="1.32" width="1" height="11.64"></rect></svg><svg x="210.40625" overflow="visible" y="156.96875" height="14.28125" width="6.53125"><polyline points="1.31,1.32 5.21,7.14 1.31,12.96" style="fill:none;fill-opacity:1;stroke-width:1px;stroke:rgb(0,0,0);stroke-opacity:1;"></polyline></svg></g></g></g><g><g><g><g><g><g><g transform="matrix(1,0,0,1,494.65625,255.68125)"><path transform="matrix(0.0119,0,0,-0.0119,0,0)" d="M604 241L604 300L364 300L364 538L305 538L305 300L65 300L65 241L305 241L305 0L364 0L364 241Z" stroke="rgb(0,0,0)" stroke-opacity="1" stroke-width="8" fill="rgb(0,0,0)" fill-opacity="1"></path></g></g><g><g transform="matrix(1,0,0,1,502.609375,255.68125)"><path transform="matrix(0.0119,0,0,-0.0119,0,0)" d="M34 388L41 368L73 389C110 412 113 414 120 414C130 414 138 404 138 391C138 384 134 361 130 347L64 107C56 76 51 49 51 30C51 6 62 -9 81 -9C107 -9 143 12 241 85L231 103L205 86C176 67 153 56 144 56C137 56 131 66 131 76C131 86 133 95 138 116L215 420C219 437 221 448 221 456C221 473 212 482 196 482C174 482 137 461 62 408ZM228 712C199 712 170 679 170 645C170 620 185 604 209 604C240 604 264 633 264 671C264 695 249 712 228 712Z" stroke="rgb(0,0,0)" stroke-opacity="1" stroke-width="8" fill="rgb(0,0,0)" fill-opacity="1"></path></g></g></g></g><svg x="490.5" overflow="visible" y="244.96875" height="14.28125" width="2.96875"><rect style="fill:rgb(0,0,0);fill-opacity:1;stroke-width:1px;stroke:none;stroke-opacity:1;" x="0.98" y="1.32" width="1" height="11.64"></rect></svg><svg x="505.90625" overflow="visible" y="244.96875" height="14.28125" width="6.53125"><polyline points="1.31,1.32 5.21,7.14 1.31,12.96" style="fill:none;fill-opacity:1;stroke-width:1px;stroke:rgb(0,0,0);stroke-opacity:1;"></polyline></svg></g><g><g transform="matrix(1,0,0,1,516,255.68125)"><path transform="matrix(0.0119,0,0,-0.0119,0,0)" d="M604 347L604 406L65 406L65 347ZM604 134L604 193L65 193L65 134Z" stroke="rgb(0,0,0)" stroke-opacity="1" stroke-width="8" fill="rgb(0,0,0)" fill-opacity="1"></path></g></g><g><g><g><g><g transform="matrix(1,0,0,1,534.640625,247.4)"><path transform="matrix(0.0119,0,0,-0.0119,0,0)" d="M418 -3L418 27L366 30C311 33 301 44 301 96L301 700L60 598L67 548L217 614L217 96C217 44 206 33 152 30L96 27L96 -3C250 0 250 0 261 0C292 0 402 -3 418 -3Z" stroke="rgb(0,0,0)" stroke-opacity="1" stroke-width="8" fill="rgb(0,0,0)" fill-opacity="1"></path></g></g></g></g><g><g><g><g><g><g><g transform="matrix(1,0,0,1,540.59375,268.946875)"><path transform="matrix(0.0119,0,0,-0.0119,0,0)" d="M16 23L16 -3C203 -3 203 0 239 0C275 0 275 -3 468 -3L468 82C353 77 307 81 122 77L304 270C401 373 431 428 431 503C431 618 353 689 226 689C154 689 105 669 56 619L39 483L68 483L81 529C97 587 133 612 200 612C286 612 341 558 341 473C341 398 299 324 186 204Z" stroke="rgb(0,0,0)" stroke-opacity="1" stroke-width="8" fill="rgb(0,0,0)" fill-opacity="1"></path></g></g></g></g><svg x="528.703125" overflow="visible" y="256.171875" height="11.890625" width="17.84375"><polygon points="0.25,6.79 3.35,5.13 6.78,12.39 11.45,0.00 17.84,0.00 17.84,0.74 11.99,0.74 6.43,15.40 2.17,6.48 0.45,7.13" style="fill:rgb(0,0,0);fill-opacity:1;stroke-width:1px;stroke:none;stroke-opacity:1;"></polygon></svg></g></g></g><line style="fill:none;stroke-width:1px;stroke:rgb(0, 0, 0);" x1="528.703125" y1="252.8125" x2="546.546875" y2="252.8125"></line></g><g><g><g><g><g transform="matrix(1,0,0,1,551.890625,255.68125)"><path transform="matrix(0.0119,0,0,-0.0119,0,0)" d="M263 689C108 689 29 566 29 324C29 207 50 106 85 57C120 8 176 -20 238 -20C389 -20 465 110 465 366C465 585 400 689 263 689ZM245 654C342 654 381 556 381 316C381 103 343 15 251 15C154 15 113 116 113 360C113 571 150 654 245 654Z" stroke="rgb(0,0,0)" stroke-opacity="1" stroke-width="8" fill="rgb(0,0,0)" fill-opacity="1"></path></g></g></g></g><svg x="547.734375" overflow="visible" y="244.96875" height="14.28125" width="2.96875"><rect style="fill:rgb(0,0,0);fill-opacity:1;stroke-width:1px;stroke:none;stroke-opacity:1;" x="0.98" y="1.32" width="1" height="11.64"></rect></svg><svg x="557.84375" overflow="visible" y="244.96875" height="14.28125" width="6.53125"><polyline points="1.31,1.32 5.21,7.14 1.31,12.96" style="fill:none;fill-opacity:1;stroke-width:1px;stroke:rgb(0,0,0);stroke-opacity:1;"></polyline></svg></g><g><g transform="matrix(1,0,0,1,566.75,255.68125)"><path transform="matrix(0.0119,0,0,-0.0119,0,0)" d="M604 241L604 300L364 300L364 538L305 538L305 300L65 300L65 241L305 241L305 0L364 0L364 241Z" stroke="rgb(0,0,0)" stroke-opacity="1" stroke-width="8" fill="rgb(0,0,0)" fill-opacity="1"></path></g></g><g><g><g><g><g transform="matrix(1,0,0,1,585.53125,247.4)"><path transform="matrix(0.0119,0,0,-0.0119,0,0)" d="M34 388L41 368L73 389C110 412 113 414 120 414C130 414 138 404 138 391C138 384 134 361 130 347L64 107C56 76 51 49 51 30C51 6 62 -9 81 -9C107 -9 143 12 241 85L231 103L205 86C176 67 153 56 144 56C137 56 131 66 131 76C131 86 133 95 138 116L215 420C219 437 221 448 221 456C221 473 212 482 196 482C174 482 137 461 62 408ZM228 712C199 712 170 679 170 645C170 620 185 604 209 604C240 604 264 633 264 671C264 695 249 712 228 712Z" stroke="rgb(0,0,0)" stroke-opacity="1" stroke-width="8" fill="rgb(0,0,0)" fill-opacity="1"></path></g></g></g></g><g><g><g><g><g><g><g transform="matrix(1,0,0,1,590.15625,268.946875)"><path transform="matrix(0.0119,0,0,-0.0119,0,0)" d="M16 23L16 -3C203 -3 203 0 239 0C275 0 275 -3 468 -3L468 82C353 77 307 81 122 77L304 270C401 373 431 428 431 503C431 618 353 689 226 689C154 689 105 669 56 619L39 483L68 483L81 529C97 587 133 612 200 612C286 612 341 558 341 473C341 398 299 324 186 204Z" stroke="rgb(0,0,0)" stroke-opacity="1" stroke-width="8" fill="rgb(0,0,0)" fill-opacity="1"></path></g></g></g></g><svg x="578.265625" overflow="visible" y="256.171875" height="11.890625" width="17.84375"><polygon points="0.25,6.79 3.35,5.13 6.78,12.39 11.45,0.00 17.84,0.00 17.84,0.74 11.99,0.74 6.43,15.40 2.17,6.48 0.45,7.13" style="fill:rgb(0,0,0);fill-opacity:1;stroke-width:1px;stroke:none;stroke-opacity:1;"></polygon></svg></g></g></g><line style="fill:none;stroke-width:1px;stroke:rgb(0, 0, 0);" x1="578.265625" y1="252.8125" x2="596.109375" y2="252.8125"></line></g><g><g><g><g><g transform="matrix(1,0,0,1,601.453125,255.68125)"><path transform="matrix(0.0119,0,0,-0.0119,0,0)" d="M418 -3L418 27L366 30C311 33 301 44 301 96L301 700L60 598L67 548L217 614L217 96C217 44 206 33 152 30L96 27L96 -3C250 0 250 0 261 0C292 0 402 -3 418 -3Z" stroke="rgb(0,0,0)" stroke-opacity="1" stroke-width="8" fill="rgb(0,0,0)" fill-opacity="1"></path></g></g></g></g><svg x="597.296875" overflow="visible" y="244.96875" height="14.28125" width="2.96875"><rect style="fill:rgb(0,0,0);fill-opacity:1;stroke-width:1px;stroke:none;stroke-opacity:1;" x="0.98" y="1.32" width="1" height="11.64"></rect></svg><svg x="607.40625" overflow="visible" y="244.96875" height="14.28125" width="6.53125"><polyline points="1.31,1.32 5.21,7.14 1.31,12.96" style="fill:none;fill-opacity:1;stroke-width:1px;stroke:rgb(0,0,0);stroke-opacity:1;"></polyline></svg></g></g></g><g><g><g><g><g><g><g transform="matrix(1,0,0,1,349.15625,54.9)"><path transform="matrix(0.0119,0,0,-0.0119,0,0)" d="M263 689C108 689 29 566 29 324C29 207 50 106 85 57C120 8 176 -20 238 -20C389 -20 465 110 465 366C465 585 400 689 263 689ZM245 654C342 654 381 556 381 316C381 103 343 15 251 15C154 15 113 116 113 360C113 571 150 654 245 654Z" stroke="rgb(0,0,0)" stroke-opacity="1" stroke-width="8" fill="rgb(0,0,0)" fill-opacity="1"></path></g></g></g></g><svg x="345" overflow="visible" y="44.1875" height="14.28125" width="2.96875"><rect style="fill:rgb(0,0,0);fill-opacity:1;stroke-width:1px;stroke:none;stroke-opacity:1;" x="0.98" y="1.32" width="1" height="11.64"></rect></svg><svg x="355.109375" overflow="visible" y="44.1875" height="14.28125" width="6.53125"><polyline points="1.31,1.32 5.21,7.14 1.31,12.96" style="fill:none;fill-opacity:1;stroke-width:1px;stroke:rgb(0,0,0);stroke-opacity:1;"></polyline></svg></g></g></g><g><g><g><g><g><g><g transform="matrix(1,0,0,1,349.15625,369.9)"><path transform="matrix(0.0119,0,0,-0.0119,0,0)" d="M418 -3L418 27L366 30C311 33 301 44 301 96L301 700L60 598L67 548L217 614L217 96C217 44 206 33 152 30L96 27L96 -3C250 0 250 0 261 0C292 0 402 -3 418 -3Z" stroke="rgb(0,0,0)" stroke-opacity="1" stroke-width="8" fill="rgb(0,0,0)" fill-opacity="1"></path></g></g></g></g><svg x="345" overflow="visible" y="359.1875" height="14.28125" width="2.96875"><rect style="fill:rgb(0,0,0);fill-opacity:1;stroke-width:1px;stroke:none;stroke-opacity:1;" x="0.98" y="1.32" width="1" height="11.64"></rect></svg><svg x="355.109375" overflow="visible" y="359.1875" height="14.28125" width="6.53125"><polyline points="1.31,1.32 5.21,7.14 1.31,12.96" style="fill:none;fill-opacity:1;stroke-width:1px;stroke:rgb(0,0,0);stroke-opacity:1;"></polyline></svg></g></g></g><g><g><g><g><g><g><g transform="matrix(1,0,0,1,436.65625,139.18125)"><path transform="matrix(0.0119,0,0,-0.0119,0,0)" d="M555 243L555 299L51 299L51 243Z" stroke="rgb(0,0,0)" stroke-opacity="1" stroke-width="8" fill="rgb(0,0,0)" fill-opacity="1"></path></g></g></g></g><svg x="432.5" overflow="visible" y="128.46875" height="14.28125" width="2.96875"><rect style="fill:rgb(0,0,0);fill-opacity:1;stroke-width:1px;stroke:none;stroke-opacity:1;" x="0.98" y="1.32" width="1" height="11.64"></rect></svg><svg x="443.859375" overflow="visible" y="128.46875" height="14.28125" width="6.53125"><polyline points="1.31,1.32 5.21,7.14 1.31,12.96" style="fill:none;fill-opacity:1;stroke-width:1px;stroke:rgb(0,0,0);stroke-opacity:1;"></polyline></svg></g><g><g transform="matrix(1,0,0,1,453.953125,139.18125)"><path transform="matrix(0.0119,0,0,-0.0119,0,0)" d="M604 347L604 406L65 406L65 347ZM604 134L604 193L65 193L65 134Z" stroke="rgb(0,0,0)" stroke-opacity="1" stroke-width="8" fill="rgb(0,0,0)" fill-opacity="1"></path></g></g><g><g><g><g><g transform="matrix(1,0,0,1,472.59375,130.9)"><path transform="matrix(0.0119,0,0,-0.0119,0,0)" d="M418 -3L418 27L366 30C311 33 301 44 301 96L301 700L60 598L67 548L217 614L217 96C217 44 206 33 152 30L96 27L96 -3C250 0 250 0 261 0C292 0 402 -3 418 -3Z" stroke="rgb(0,0,0)" stroke-opacity="1" stroke-width="8" fill="rgb(0,0,0)" fill-opacity="1"></path></g></g></g></g><g><g><g><g><g><g><g transform="matrix(1,0,0,1,478.546875,152.446875)"><path transform="matrix(0.0119,0,0,-0.0119,0,0)" d="M16 23L16 -3C203 -3 203 0 239 0C275 0 275 -3 468 -3L468 82C353 77 307 81 122 77L304 270C401 373 431 428 431 503C431 618 353 689 226 689C154 689 105 669 56 619L39 483L68 483L81 529C97 587 133 612 200 612C286 612 341 558 341 473C341 398 299 324 186 204Z" stroke="rgb(0,0,0)" stroke-opacity="1" stroke-width="8" fill="rgb(0,0,0)" fill-opacity="1"></path></g></g></g></g><svg x="466.65625" overflow="visible" y="139.671875" height="11.890625" width="17.84375"><polygon points="0.25,6.79 3.35,5.13 6.78,12.39 11.45,0.00 17.84,0.00 17.84,0.74 11.99,0.74 6.43,15.40 2.17,6.48 0.45,7.13" style="fill:rgb(0,0,0);fill-opacity:1;stroke-width:1px;stroke:none;stroke-opacity:1;"></polygon></svg></g></g></g><line style="fill:none;stroke-width:1px;stroke:rgb(0, 0, 0);" x1="466.65625" y1="136.3125" x2="484.5" y2="136.3125"></line></g><g><g><g><g><g transform="matrix(1,0,0,1,489.84375,139.18125)"><path transform="matrix(0.0119,0,0,-0.0119,0,0)" d="M263 689C108 689 29 566 29 324C29 207 50 106 85 57C120 8 176 -20 238 -20C389 -20 465 110 465 366C465 585 400 689 263 689ZM245 654C342 654 381 556 381 316C381 103 343 15 251 15C154 15 113 116 113 360C113 571 150 654 245 654Z" stroke="rgb(0,0,0)" stroke-opacity="1" stroke-width="8" fill="rgb(0,0,0)" fill-opacity="1"></path></g></g></g></g><svg x="485.6875" overflow="visible" y="128.46875" height="14.28125" width="2.96875"><rect style="fill:rgb(0,0,0);fill-opacity:1;stroke-width:1px;stroke:none;stroke-opacity:1;" x="0.98" y="1.32" width="1" height="11.64"></rect></svg><svg x="495.796875" overflow="visible" y="128.46875" height="14.28125" width="6.53125"><polyline points="1.31,1.32 5.21,7.14 1.31,12.96" style="fill:none;fill-opacity:1;stroke-width:1px;stroke:rgb(0,0,0);stroke-opacity:1;"></polyline></svg></g><g><g transform="matrix(1,0,0,1,504.703125,139.18125)"><path transform="matrix(0.0119,0,0,-0.0119,0,0)" d="M555 243L555 299L51 299L51 243Z" stroke="rgb(0,0,0)" stroke-opacity="1" stroke-width="8" fill="rgb(0,0,0)" fill-opacity="1"></path></g></g><g><g><g><g><g transform="matrix(1,0,0,1,521.40625,130.9)"><path transform="matrix(0.0119,0,0,-0.0119,0,0)" d="M418 -3L418 27L366 30C311 33 301 44 301 96L301 700L60 598L67 548L217 614L217 96C217 44 206 33 152 30L96 27L96 -3C250 0 250 0 261 0C292 0 402 -3 418 -3Z" stroke="rgb(0,0,0)" stroke-opacity="1" stroke-width="8" fill="rgb(0,0,0)" fill-opacity="1"></path></g></g></g></g><g><g><g><g><g><g><g transform="matrix(1,0,0,1,527.359375,152.446875)"><path transform="matrix(0.0119,0,0,-0.0119,0,0)" d="M16 23L16 -3C203 -3 203 0 239 0C275 0 275 -3 468 -3L468 82C353 77 307 81 122 77L304 270C401 373 431 428 431 503C431 618 353 689 226 689C154 689 105 669 56 619L39 483L68 483L81 529C97 587 133 612 200 612C286 612 341 558 341 473C341 398 299 324 186 204Z" stroke="rgb(0,0,0)" stroke-opacity="1" stroke-width="8" fill="rgb(0,0,0)" fill-opacity="1"></path></g></g></g></g><svg x="515.46875" overflow="visible" y="139.671875" height="11.890625" width="17.84375"><polygon points="0.25,6.79 3.35,5.13 6.78,12.39 11.45,0.00 17.84,0.00 17.84,0.74 11.99,0.74 6.43,15.40 2.17,6.48 0.45,7.13" style="fill:rgb(0,0,0);fill-opacity:1;stroke-width:1px;stroke:none;stroke-opacity:1;"></polygon></svg></g></g></g><line style="fill:none;stroke-width:1px;stroke:rgb(0, 0, 0);" x1="515.46875" y1="136.3125" x2="533.3125" y2="136.3125"></line></g><g><g><g><g><g transform="matrix(1,0,0,1,538.65625,139.18125)"><path transform="matrix(0.0119,0,0,-0.0119,0,0)" d="M418 -3L418 27L366 30C311 33 301 44 301 96L301 700L60 598L67 548L217 614L217 96C217 44 206 33 152 30L96 27L96 -3C250 0 250 0 261 0C292 0 402 -3 418 -3Z" stroke="rgb(0,0,0)" stroke-opacity="1" stroke-width="8" fill="rgb(0,0,0)" fill-opacity="1"></path></g></g></g></g><svg x="534.5" overflow="visible" y="128.46875" height="14.28125" width="2.96875"><rect style="fill:rgb(0,0,0);fill-opacity:1;stroke-width:1px;stroke:none;stroke-opacity:1;" x="0.98" y="1.32" width="1" height="11.64"></rect></svg><svg x="544.609375" overflow="visible" y="128.46875" height="14.28125" width="6.53125"><polyline points="1.31,1.32 5.21,7.14 1.31,12.96" style="fill:none;fill-opacity:1;stroke-width:1px;stroke:rgb(0,0,0);stroke-opacity:1;"></polyline></svg></g></g></g><g><g><g><g><g><g><g transform="matrix(1,0,0,1,215.484375,291.3375)"><path transform="matrix(0.0119,0,0,-0.0119,0,0)" d="M604 241L604 300L364 300L364 538L305 538L305 300L65 300L65 241L305 241L305 0L364 0L364 241Z" stroke="rgb(0,0,0)" stroke-opacity="1" stroke-width="8" fill="rgb(0,0,0)" fill-opacity="1"></path></g></g></g></g><svg x="211.328125" overflow="visible" y="280.625" height="14.28125" width="2.96875"><rect style="fill:rgb(0,0,0);fill-opacity:1;stroke-width:1px;stroke:none;stroke-opacity:1;" x="0.98" y="1.32" width="1" height="11.64"></rect></svg><svg x="223.4375" overflow="visible" y="280.625" height="14.28125" width="6.53125"><polyline points="1.31,1.32 5.21,7.14 1.31,12.96" style="fill:none;fill-opacity:1;stroke-width:1px;stroke:rgb(0,0,0);stroke-opacity:1;"></polyline></svg></g><g><g transform="matrix(1,0,0,1,233.53125,291.3375)"><path transform="matrix(0.0119,0,0,-0.0119,0,0)" d="M604 347L604 406L65 406L65 347ZM604 134L604 193L65 193L65 134Z" stroke="rgb(0,0,0)" stroke-opacity="1" stroke-width="8" fill="rgb(0,0,0)" fill-opacity="1"></path></g></g><g><g><g><g><g transform="matrix(1,0,0,1,252.171875,283.05625)"><path transform="matrix(0.0119,0,0,-0.0119,0,0)" d="M418 -3L418 27L366 30C311 33 301 44 301 96L301 700L60 598L67 548L217 614L217 96C217 44 206 33 152 30L96 27L96 -3C250 0 250 0 261 0C292 0 402 -3 418 -3Z" stroke="rgb(0,0,0)" stroke-opacity="1" stroke-width="8" fill="rgb(0,0,0)" fill-opacity="1"></path></g></g></g></g><g><g><g><g><g><g><g transform="matrix(1,0,0,1,258.125,304.603125)"><path transform="matrix(0.0119,0,0,-0.0119,0,0)" d="M16 23L16 -3C203 -3 203 0 239 0C275 0 275 -3 468 -3L468 82C353 77 307 81 122 77L304 270C401 373 431 428 431 503C431 618 353 689 226 689C154 689 105 669 56 619L39 483L68 483L81 529C97 587 133 612 200 612C286 612 341 558 341 473C341 398 299 324 186 204Z" stroke="rgb(0,0,0)" stroke-opacity="1" stroke-width="8" fill="rgb(0,0,0)" fill-opacity="1"></path></g></g></g></g><svg x="246.234375" overflow="visible" y="291.828125" height="11.890625" width="17.84375"><polygon points="0.25,6.79 3.35,5.13 6.78,12.39 11.45,0.00 17.84,0.00 17.84,0.74 11.99,0.74 6.43,15.40 2.17,6.48 0.45,7.13" style="fill:rgb(0,0,0);fill-opacity:1;stroke-width:1px;stroke:none;stroke-opacity:1;"></polygon></svg></g></g></g><line style="fill:none;stroke-width:1px;stroke:rgb(0, 0, 0);" x1="246.234375" y1="288.46875" x2="264.078125" y2="288.46875"></line></g><g><g><g><g><g transform="matrix(1,0,0,1,269.421875,291.3375)"><path transform="matrix(0.0119,0,0,-0.0119,0,0)" d="M263 689C108 689 29 566 29 324C29 207 50 106 85 57C120 8 176 -20 238 -20C389 -20 465 110 465 366C465 585 400 689 263 689ZM245 654C342 654 381 556 381 316C381 103 343 15 251 15C154 15 113 116 113 360C113 571 150 654 245 654Z" stroke="rgb(0,0,0)" stroke-opacity="1" stroke-width="8" fill="rgb(0,0,0)" fill-opacity="1"></path></g></g></g></g><svg x="265.265625" overflow="visible" y="280.625" height="14.28125" width="2.96875"><rect style="fill:rgb(0,0,0);fill-opacity:1;stroke-width:1px;stroke:none;stroke-opacity:1;" x="0.98" y="1.32" width="1" height="11.64"></rect></svg><svg x="275.375" overflow="visible" y="280.625" height="14.28125" width="6.53125"><polyline points="1.31,1.32 5.21,7.14 1.31,12.96" style="fill:none;fill-opacity:1;stroke-width:1px;stroke:rgb(0,0,0);stroke-opacity:1;"></polyline></svg></g><g><g transform="matrix(1,0,0,1,284.28125,291.3375)"><path transform="matrix(0.0119,0,0,-0.0119,0,0)" d="M604 241L604 300L364 300L364 538L305 538L305 300L65 300L65 241L305 241L305 0L364 0L364 241Z" stroke="rgb(0,0,0)" stroke-opacity="1" stroke-width="8" fill="rgb(0,0,0)" fill-opacity="1"></path></g></g><g><g><g><g><g transform="matrix(1,0,0,1,301.734375,283.05625)"><path transform="matrix(0.0119,0,0,-0.0119,0,0)" d="M418 -3L418 27L366 30C311 33 301 44 301 96L301 700L60 598L67 548L217 614L217 96C217 44 206 33 152 30L96 27L96 -3C250 0 250 0 261 0C292 0 402 -3 418 -3Z" stroke="rgb(0,0,0)" stroke-opacity="1" stroke-width="8" fill="rgb(0,0,0)" fill-opacity="1"></path></g></g></g></g><g><g><g><g><g><g><g transform="matrix(1,0,0,1,307.6875,304.603125)"><path transform="matrix(0.0119,0,0,-0.0119,0,0)" d="M16 23L16 -3C203 -3 203 0 239 0C275 0 275 -3 468 -3L468 82C353 77 307 81 122 77L304 270C401 373 431 428 431 503C431 618 353 689 226 689C154 689 105 669 56 619L39 483L68 483L81 529C97 587 133 612 200 612C286 612 341 558 341 473C341 398 299 324 186 204Z" stroke="rgb(0,0,0)" stroke-opacity="1" stroke-width="8" fill="rgb(0,0,0)" fill-opacity="1"></path></g></g></g></g><svg x="295.796875" overflow="visible" y="291.828125" height="11.890625" width="17.84375"><polygon points="0.25,6.79 3.35,5.13 6.78,12.39 11.45,0.00 17.84,0.00 17.84,0.74 11.99,0.74 6.43,15.40 2.17,6.48 0.45,7.13" style="fill:rgb(0,0,0);fill-opacity:1;stroke-width:1px;stroke:none;stroke-opacity:1;"></polygon></svg></g></g></g><line style="fill:none;stroke-width:1px;stroke:rgb(0, 0, 0);" x1="295.796875" y1="288.46875" x2="313.640625" y2="288.46875"></line></g><g><g><g><g><g transform="matrix(1,0,0,1,318.984375,291.3375)"><path transform="matrix(0.0119,0,0,-0.0119,0,0)" d="M418 -3L418 27L366 30C311 33 301 44 301 96L301 700L60 598L67 548L217 614L217 96C217 44 206 33 152 30L96 27L96 -3C250 0 250 0 261 0C292 0 402 -3 418 -3Z" stroke="rgb(0,0,0)" stroke-opacity="1" stroke-width="8" fill="rgb(0,0,0)" fill-opacity="1"></path></g></g></g></g><svg x="314.828125" overflow="visible" y="280.625" height="14.28125" width="2.96875"><rect style="fill:rgb(0,0,0);fill-opacity:1;stroke-width:1px;stroke:none;stroke-opacity:1;" x="0.98" y="1.32" width="1" height="11.64"></rect></svg><svg x="324.9375" overflow="visible" y="280.625" height="14.28125" width="6.53125"><polyline points="1.31,1.32 5.21,7.14 1.31,12.96" style="fill:none;fill-opacity:1;stroke-width:1px;stroke:rgb(0,0,0);stroke-opacity:1;"></polyline></svg></g></g></g></svg>
</svg>
