<svg width="702" height="397" viewBox="0 0 702 397" fill="none" xmlns="http://www.w3.org/2000/svg">
<g clip-path="url(#clip0_8_647)">
<path d="M702 0H0V397H702V0Z" stroke="#D3D3D3" stroke-width="0.5"/>
<path d="M504.54 211.03C504.99 216.67 506.57 220.83 508.45 220.83C510.68 220.83 512.49 214.98 512.49 207.75C512.49 200.52 510.68 194.67 508.45 194.67C506.82 194.67 505.42 197.8 504.78 202.31" stroke="#FF0000" stroke-width="2"/>
<path d="M502.071 199.561L504.442 206.29L508.214 200.235L504.907 202.045L502.071 199.561Z" fill="#FF0000"/>
<path d="M352.5 388.25V29.75" stroke="black"/>
<path d="M357.65 37.47L352.5 26.75L347.35 37.47H357.65Z" fill="black"/>
<path d="M214 207.5C214 131.01 276.01 69 352.5 69C428.99 69 491 131.01 491 207.5C491 283.99 428.99 346 352.5 346C276.01 346 214 283.99 214 207.5Z" stroke="black" stroke-width="2"/>
<path d="M214 207.5C214 183.34 276.01 163.75 352.5 163.75C428.99 163.75 491 183.34 491 207.5C491 231.66 428.99 251.25 352.5 251.25C276.01 251.25 214 231.66 214 207.5Z" stroke="black" stroke-dasharray="6 6"/>
<path d="M352.5 69C376.66 69 396.25 131.01 396.25 207.5C396.25 283.99 376.66 346 352.5 346C328.34 346 308.75 283.99 308.75 207.5C308.75 131.01 328.34 69 352.5 69Z" stroke="black" stroke-dasharray="6 6"/>
<path d="M171.75 207.5H530.25" stroke="black"/>
<path d="M522.53 212.65L533.25 207.5L522.53 202.35V212.65Z" fill="black"/>
<path d="M282.96 277.04L419.92 140.08" stroke="black"/>
<path d="M418.762 147.305L422.043 137.957L412.695 141.238L418.762 147.305Z" fill="black"/>
<path d="M347.5 346C347.5 343.24 349.74 341 352.5 341C355.26 341 357.5 343.24 357.5 346C357.5 348.76 355.26 351 352.5 351C349.74 351 347.5 348.76 347.5 346Z" fill="white" stroke="black"/>
<path d="M347.5 69C347.5 66.24 349.74 64 352.5 64C355.26 64 357.5 66.24 357.5 69C357.5 71.76 355.26 74 352.5 74C349.74 74 347.5 71.76 347.5 69Z" fill="white" stroke="black"/>
<path d="M351.38 69.33C327.83 69.33 308.75 131.1 308.75 207.29C308.75 278.15 325.26 336.53 346.5 344.36" stroke="#FF0000" stroke-width="3"/>
<path d="M333.553 345.726L351.375 345.25L339.865 331.635L341.637 340.888L333.553 345.726Z" fill="#FF0000"/>
<path d="M517.84 229.38C518.146 229.543 518.472 229.624 518.717 229.624C519.39 229.624 520.186 229.033 520.818 228.074L522.369 225.687L522.593 227.095C522.858 228.829 523.327 229.624 524.062 229.624C524.511 229.624 525.163 229.278 525.816 228.686L526.816 227.788L526.632 227.401C525.898 228.013 525.388 228.319 525.061 228.319C524.755 228.319 524.49 228.115 524.286 227.707C524.103 227.319 523.878 226.564 523.776 225.973L523.409 223.912L524.123 222.913C525.082 221.587 525.633 221.118 526.265 221.118C526.591 221.118 526.836 221.281 526.938 221.587L527.224 221.505L527.53 219.771C527.285 219.628 527.101 219.567 526.918 219.567C526.102 219.567 525.286 220.302 524.021 222.178L523.266 223.3L523.144 222.321C522.899 220.302 522.348 219.567 521.145 219.567C520.614 219.567 520.165 219.73 519.982 219.996L518.799 221.689L519.145 221.893C519.757 221.199 520.165 220.914 520.553 220.914C521.226 220.914 521.675 221.75 522.022 223.749L522.246 225.014L521.43 226.279C520.553 227.646 519.859 228.298 519.288 228.298C518.982 228.298 518.758 228.217 518.717 228.115L518.493 227.544L518.085 227.605C518.085 228.319 517.921 228.849 517.84 229.38Z" fill="black" stroke="black" stroke-width="0.1632"/>
<path d="M424.888 163.025C424.868 163.168 424.868 163.29 424.868 163.392C424.868 164.27 425.623 164.984 426.541 164.984C428.703 164.984 430.947 162.454 432.151 158.68L435.027 149.704L434.803 149.52C434.211 149.745 433.742 149.867 433.293 149.908L432.579 152.601C432.334 153.56 431.62 155.049 430.947 156.048C430.233 157.089 429.234 157.986 428.785 157.986C428.54 157.986 428.356 157.517 428.377 157.007L428.703 152.784C428.744 152.152 428.785 151.377 428.785 150.806C428.785 149.888 428.642 149.52 428.295 149.52C428.03 149.52 427.744 149.663 426.765 150.336L425.092 151.479L425.317 151.846L426.337 151.234C426.439 151.173 426.663 150.989 426.847 150.989C427.132 150.989 427.296 151.377 427.296 152.05C427.296 152.07 427.296 152.193 427.275 152.356L426.928 157.313L426.908 158.129C426.908 158.986 427.275 159.578 427.785 159.578C428.54 159.578 430.254 157.844 431.784 155.538L430.784 159.027C429.744 162.638 428.724 164.127 427.296 164.127C426.582 164.127 426.031 163.576 426.031 162.862C426.031 162.76 426.051 162.597 426.072 162.413L425.868 162.332L424.888 163.025Z" fill="black" stroke="black" stroke-width="0.1632"/>
<path d="M370.397 45.4525C370.642 45.4525 370.825 45.4117 371.417 45.2485C371.641 43.9837 371.805 43.2901 372.029 42.3313H371.58L371.131 43.5553C371.009 43.9225 370.764 44.0653 370.336 44.0653C370.091 44.0653 369.765 44.0245 369.336 43.9225L368.969 43.8409C368.296 43.6981 367.602 43.5961 367.215 43.5961C366.562 43.5961 366.011 43.7185 365.277 44.0245L372.192 36.2317L372.315 35.5789L372.131 35.3953L371.662 35.8645C371.458 36.0685 371.254 36.1501 370.968 36.1501C370.275 36.1501 369.214 35.9869 368.235 35.7217L367.867 35.6197C367.296 35.4769 366.888 35.3953 366.603 35.3953C366.256 35.3953 365.848 35.4565 365.358 35.5993L364.705 38.0881H365.134L365.746 36.9049C366.093 36.8233 366.276 36.8029 366.541 36.8029C367.378 36.8029 368.031 37.1089 369.112 37.1089C369.846 37.1089 370.336 36.9865 371.009 36.6397L363.808 44.7997L363.991 45.3505C364.583 44.8813 365.134 44.6977 365.848 44.6977C367.133 44.6977 368.989 45.4525 370.397 45.4525Z" fill="black" stroke="black" stroke-width="0.1632"/>
<path d="M334.942 53.7009C333.098 53.7009 332.158 55.1646 332.158 58.0444C332.158 59.4367 332.407 60.6386 332.824 61.2217C333.24 61.8048 333.907 62.138 334.645 62.138C336.442 62.138 337.346 60.591 337.346 57.5446C337.346 54.9385 336.572 53.7009 334.942 53.7009ZM334.728 54.1174C335.882 54.1174 336.346 55.2836 336.346 58.1396C336.346 60.6743 335.894 61.7215 334.799 61.7215C333.645 61.7215 333.157 60.5196 333.157 57.616C333.157 55.1051 333.597 54.1174 334.728 54.1174Z" fill="black" stroke="black" stroke-width="0.0952"/>
<path d="M329.636 52.5075H328.636V64.1475H329.636V52.5075Z" fill="black"/>
<path d="M339.076 52.5075L342.976 58.3275L339.076 64.1475" stroke="black"/>
<path d="M341.459 360.592V360.235L340.84 360.199C340.185 360.164 340.066 360.033 340.066 359.414V352.226L337.198 353.44L337.282 354.035L339.067 353.25V359.414C339.067 360.033 338.936 360.164 338.293 360.199L337.627 360.235V360.592C339.459 360.556 339.459 360.556 339.59 360.556C339.959 360.556 341.268 360.592 341.459 360.592Z" fill="black" stroke="black" stroke-width="0.0952"/>
<path d="M334.308 351.164H333.308V362.804H334.308V351.164Z" fill="black"/>
<g clip-path="url(#clip1_8_647)">
<path d="M343.747 351.164L347.647 356.984L343.747 362.804" stroke="black"/>
</g>
</g>
<defs>
<clipPath id="clip0_8_647">
<rect width="702" height="397" fill="white"/>
</clipPath>
<clipPath id="clip1_8_647">
<rect width="6.53125" height="14.2812" fill="white" transform="translate(342.438 349.844)"/>
</clipPath>
</defs>
</svg>
